<?xml version="1.0" encoding="utf-8"?>
<!-- Generator: Adobe Illustrator 27.5.0, SVG Export Plug-In . SVG Version: 6.00 Build 0)  -->
<svg version="1.1" xmlns="http://www.w3.org/2000/svg" xmlns:xlink="http://www.w3.org/1999/xlink" x="0px" y="0px"
	 viewBox="0 0 2200 1466" style="enable-background:new 0 0 2200 1466;" xml:space="preserve">
<g id="background">
	<rect style="fill:#FFFFFF;" width="2200" height="1466"/>
</g>
<g id="Objects">
	<g>
		<path d="M1999.451,670.495c2.563,1.02,5.474-0.229,6.495-2.794c1.022-2.565-0.229-5.474-2.794-6.496
			c-123.318-49.128-268.406-82.564-420.219-96.916l7.458-72.505c69.562,7.36,138.523,18.886,205.263,34.341
			c72.831,16.866,141.398,38.023,203.797,62.881c2.568,1.022,5.475-0.23,6.495-2.794c1.022-2.565-0.229-5.474-2.794-6.496
			c-62.867-25.045-131.92-46.354-205.242-63.333c-67.144-15.55-136.519-27.144-206.496-34.547l2.221-21.596
			c0.282-2.747-1.715-5.203-4.462-5.485c-2.748-0.286-5.203,1.716-5.485,4.462l-2.221,21.597c-3.006-0.301-6.01-0.607-9.018-0.892
			c-160.7-15.231-315.02-7.478-446.284,22.418c-46.262,10.537-92.276,23.565-136.775,36.164
			c-27.248,7.715-54.915,15.544-82.913,22.88l-2.21-22.492c-0.27-2.748-2.718-4.755-5.465-4.487
			c-2.748,0.27-4.757,2.717-4.486,5.465l2.364,24.061c-31.317,8.045-63.036,15.383-95.044,21.161
			c-99.32,17.929-206.438,20.813-309.773,8.342c-103.31-12.468-203.957-40.42-291.06-80.833c-2.506-1.163-5.479-0.074-6.64,2.431
			c-1.162,2.505-0.074,5.478,2.431,6.64c88.044,40.85,189.731,69.097,294.07,81.69c42.529,5.133,85.689,7.688,128.702,7.688
			c62.483,0,124.646-5.395,184.047-16.117c31.785-5.738,63.229-12.99,94.256-20.935l7.182,73.111
			c-33.968,8.873-68.419,17.004-103.215,23.285c-99.321,17.929-206.44,20.814-309.773,8.342
			c-103.31-12.468-203.956-40.42-291.06-80.833c-2.505-1.163-5.478-0.074-6.64,2.431c-1.162,2.505-0.074,5.478,2.431,6.64
			c88.044,40.85,189.732,69.098,294.07,81.69c42.53,5.133,85.69,7.688,128.702,7.688c62.483,0,124.646-5.395,184.047-16.117
			c34.58-6.242,68.754-14.28,102.428-23.05l7.179,73.077c-36.608,9.707-73.795,18.65-111.384,25.435
			c-99.321,17.93-206.44,20.813-309.773,8.342c-103.31-12.469-203.957-40.42-291.06-80.833c-2.505-1.163-5.478-0.074-6.64,2.431
			c-1.162,2.505-0.074,5.478,2.431,6.64c88.044,40.85,189.732,69.097,294.07,81.69c42.529,5.134,85.69,7.688,128.703,7.688
			c62.483,0,124.646-5.395,184.046-16.116c37.379-6.748,74.287-15.59,110.597-25.192l7.175,73.042
			c-39.238,10.544-79.164,20.32-119.55,27.61c-99.321,17.93-206.44,20.814-309.773,8.342
			c-103.31-12.469-203.957-40.42-291.06-80.833c-2.505-1.164-5.478-0.075-6.64,2.431c-1.162,2.505-0.074,5.478,2.431,6.64
			c88.044,40.85,189.732,69.098,294.07,81.69c42.529,5.134,85.69,7.688,128.703,7.688c62.483,0,124.646-5.395,184.046-16.116
			c40.184-7.254,79.827-16.924,118.764-27.362l7.172,73.003c-41.86,11.382-84.522,22.023-127.713,29.819
			c-99.319,17.929-206.44,20.813-309.773,8.342c-103.31-12.468-203.956-40.42-291.06-80.832c-2.506-1.164-5.479-0.074-6.64,2.431
			c-1.162,2.505-0.074,5.478,2.431,6.64c88.044,40.85,189.732,69.098,294.07,81.689c42.53,5.134,85.691,7.688,128.703,7.688
			c62.483,0,124.646-5.395,184.046-16.116c42.997-7.762,85.37-18.293,126.927-29.568l7.169,72.978
			c-44.471,12.216-89.872,23.747-135.874,32.05c-99.32,17.928-206.438,20.812-309.773,8.343
			c-103.31-12.469-203.957-40.42-291.06-80.833c-2.506-1.165-5.479-0.074-6.64,2.431c-1.162,2.505-0.074,5.478,2.431,6.64
			c88.043,40.85,189.731,69.098,294.07,81.69c42.529,5.133,85.688,7.688,128.701,7.688c62.483,0,124.647-5.396,184.048-16.117
			c45.816-8.271,90.923-19.684,135.088-31.794l2.195,22.344c0.253,2.582,2.428,4.511,4.97,4.511c0.163,0,0.329-0.008,0.495-0.024
			c2.748-0.27,4.757-2.716,4.486-5.465l-2.364-24.06c14.72-4.079,29.336-8.215,43.831-12.319
			c44.375-12.564,90.262-25.557,136.271-36.035c121.552-27.684,262.212-36.85,408.751-26.806l-2.839,27.598
			c-0.282,2.747,1.715,5.203,4.462,5.485c0.174,0.018,0.347,0.026,0.518,0.026c2.531,0,4.703-1.915,4.968-4.488l2.871-27.907
			c8.125,0.604,16.263,1.252,24.42,1.975c154.671,13.695,302.642,47.313,427.915,97.22c2.563,1.022,5.474-0.229,6.495-2.794
			c1.022-2.565-0.229-5.474-2.794-6.495c-126.163-50.262-275.108-84.111-430.734-97.892c-8.109-0.718-16.2-1.362-24.279-1.964
			l7.683-74.693c5.232,0.416,10.469,0.852,15.714,1.317c154.672,13.695,302.643,47.313,427.915,97.22
			c2.563,1.021,5.474-0.229,6.495-2.794c1.022-2.565-0.229-5.474-2.794-6.495c-126.162-50.262-275.108-84.112-430.734-97.892
			c-5.197-0.46-10.388-0.894-15.572-1.307l7.676-74.625c2.338,0.198,4.674,0.384,7.015,0.591
			c154.672,13.695,302.643,47.313,427.915,97.22c2.563,1.021,5.474-0.229,6.495-2.794c1.022-2.565-0.229-5.474-2.794-6.495
			c-126.163-50.262-275.108-84.112-430.734-97.892c-2.294-0.203-4.582-0.385-6.873-0.579l7.674-74.605
			c154.062,13.789,301.415,47.339,426.232,97.064c2.563,1.022,5.474-0.229,6.495-2.794c1.022-2.565-0.229-5.474-2.794-6.495
			c-125.669-50.065-273.945-83.841-428.91-97.723l7.668-74.548C1732.818,588.495,1876.983,621.706,1999.451,670.495z
			 M907.467,571.46c28.602-7.473,56.843-15.461,84.647-23.334c44.376-12.565,90.263-25.557,136.271-36.036
			c130.239-29.663,283.466-37.344,443.12-22.213c2.981,0.283,5.959,0.586,8.938,0.884l-7.468,72.604
			c-0.186-0.017-0.372-0.035-0.558-0.052c-159.899-14.159-314.212-5.747-446.253,24.328
			c-46.262,10.536-92.276,23.565-136.775,36.164c-24.595,6.964-49.533,14.017-74.745,20.721L907.467,571.46z M1538.16,901.84
			c-147.628-10.147-289.41-0.911-411.995,27.009c-46.262,10.536-92.275,23.564-136.774,36.164
			c-13.927,3.943-27.967,7.914-42.099,11.837l-7.166-72.949c17.484-4.803,34.825-9.707,51.995-14.569
			c44.374-12.564,90.259-25.557,136.266-36.035c123.96-28.233,267.791-37.208,417.461-26.187L1538.16,901.84z M1546.871,817.159
			c-150.756-11.125-295.712-2.081-420.706,26.388c-46.26,10.536-92.272,23.564-136.77,36.163
			c-16.604,4.701-33.368,9.443-50.263,14.093l-7.169-72.972c20.252-5.507,40.312-11.183,60.149-16.8
			c44.377-12.564,90.264-25.557,136.272-36.036c126.362-28.779,273.371-37.553,426.168-25.529L1546.871,817.159z M1126.165,758.245
			c-46.263,10.536-92.276,23.565-136.776,36.165c-19.273,5.457-38.756,10.971-58.416,16.329l-7.171-73.001
			c23.03-6.189,45.815-12.638,68.315-19.009c44.376-12.564,90.262-25.557,136.27-36.036
			c128.759-29.325,278.956-37.871,434.868-24.814l-7.677,74.636C1401.698,720.385,1253.564,729.229,1126.165,758.245z
			 M1564.277,647.93c-156.992-13.164-308.315-4.55-438.112,25.013c-46.261,10.536-92.274,23.564-136.772,36.164
			c-21.938,6.211-44.149,12.496-66.582,18.539l-7.175-73.036c25.812-6.845,51.325-14.061,76.479-21.183
			c44.376-12.565,90.263-25.557,136.271-36.036c131.038-29.845,284.276-38.185,443.15-24.117c0.139,0.012,0.277,0.026,0.416,0.039
			L1564.277,647.93z"/>
		<path d="M1389.778,390.678l-179.538,29.546c-6.858,1.129-11.89,7.057-11.89,14.007v216.261
			c-9.589-6.121-21.922-9.806-35.381-9.806c-30.54,0-55.298,18.963-55.298,42.356c0,23.393,24.758,42.356,55.298,42.356
			c30.54,0,55.298-18.963,55.298-42.356v-200.33l168.094-27.663v161.224c-9.589-6.121-21.922-9.806-35.381-9.806
			c-30.54,0-55.298,18.963-55.298,42.356c0,23.393,24.758,42.356,55.298,42.356c30.54,0,55.298-18.963,55.298-42.356v-244.14
			C1406.278,395.925,1398.422,389.256,1389.778,390.678z"/>
		<g>
			<path d="M690.069,671.964c-1.398,2.563-5.298,1.001-4.556-1.821c1.924-7.369,3.339-14.842,3.754-22.445
				c0.768-13.902-2.045-28.416-10.398-40.083c-7.18-10.027-18.009-17.379-29.615-22.531c-8.042-3.572-16.482-6.179-25.016-8.474
				l8.336,210.596c0.854,21.495-21.211,39.824-49.281,40.937c-28.062,1.113-51.508-15.42-52.362-36.916
				c-0.846-21.495,21.219-39.824,49.281-40.937c12.366-0.492,23.843,2.451,32.877,7.723l-9.294-234.697
				c-0.009-0.121-0.009-0.242-0.009-0.362c0-4.901,3.866-8.966,8.802-9.156c4.634-0.181,8.603,3.115,9.38,7.568
				c0.328,1.847,0.639,3.693,1.208,5.471c2.571,8.086,7.663,13.815,14.756,19.252c8.284,6.36,17.94,10.674,26.509,16.628
				c19.571,13.565,32.86,35.811,35.535,59.464C701.908,639.268,698.276,656.88,690.069,671.964z"/>
		</g>
		<g>
			<path d="M1768.722,679.238c-1.035,17.164-7.646,33.887-18.328,47.331c-1.821,2.278-5.393,0.069-4.177-2.58
				c3.167-6.929,5.842-14.048,7.559-21.461c3.15-13.565,2.882-28.347-3.339-41.273c-5.341-11.114-14.747-20.227-25.292-27.294
				c-7.309-4.901-15.17-8.923-23.187-12.659l-28.045,208.887c-2.856,21.323-27.752,35.578-55.589,31.842
				c-27.838-3.737-48.091-24.058-45.226-45.381c2.865-21.314,27.76-35.57,55.589-31.842c12.271,1.648,23.066,6.524,31.057,13.272
				l31.255-232.79c0.009-0.121,0.035-0.242,0.052-0.362c0.846-4.824,5.35-8.163,10.243-7.499c4.599,0.613,7.939,4.548,7.939,9.069
				c0.009,1.873-0.009,3.745,0.25,5.592c1.139,8.413,5.169,14.929,11.218,21.504c7.067,7.697,15.835,13.608,23.256,20.952
				C1760.895,631.268,1770.154,655.473,1768.722,679.238z"/>
		</g>
		<g>
			<path d="M1955.152,630.341c-1.035,17.164-7.645,33.887-18.328,47.331c-1.821,2.278-5.393,0.069-4.177-2.58
				c3.167-6.929,5.842-14.048,7.559-21.461c3.15-13.565,2.882-28.347-3.339-41.273c-5.342-11.114-14.747-20.227-25.292-27.294
				c-7.309-4.901-15.17-8.923-23.187-12.659l-28.045,208.887c-2.856,21.323-27.751,35.578-55.589,31.842
				c-27.838-3.736-48.091-24.058-45.226-45.381c2.865-21.314,27.76-35.57,55.589-31.842c12.271,1.648,23.066,6.524,31.057,13.272
				l31.255-232.79c0.009-0.121,0.035-0.242,0.052-0.362c0.846-4.824,5.35-8.163,10.243-7.499c4.599,0.613,7.939,4.548,7.939,9.069
				c0.009,1.873-0.009,3.745,0.25,5.592c1.139,8.413,5.169,14.928,11.218,21.504c7.067,7.697,15.835,13.608,23.256,20.952
				C1947.326,582.371,1956.585,606.576,1955.152,630.341z"/>
		</g>
		<g>
			<path d="M844.711,650.849c-1.234,2.649-5.221,1.329-4.66-1.536c1.467-7.473,2.408-15.015,2.356-22.634
				c-0.104-13.919-3.814-28.235-12.875-39.358c-7.792-9.561-19.062-16.223-30.962-20.641c-8.25-3.063-16.836-5.134-25.499-6.895
				l21.435,209.664c2.192,21.4-18.691,41.066-46.632,43.931c-27.941,2.856-52.371-12.184-54.562-33.585
				c-2.183-21.4,18.699-41.066,46.641-43.931c12.305-1.26,23.946,0.966,33.292,5.661L749.35,507.863
				c-0.017-0.121-0.026-0.242-0.034-0.362c-0.302-4.893,3.305-9.19,8.215-9.682c4.617-0.475,8.785,2.572,9.837,6.964
				c0.44,1.829,0.863,3.65,1.545,5.393c3.072,7.904,8.508,13.306,15.93,18.294c8.664,5.825,18.57,9.535,27.493,14.946
				c20.374,12.314,35.026,33.688,39.168,57.134C854.496,617.48,851.968,635.282,844.711,650.849z"/>
		</g>
		<g>
			<path d="M1531.078,700.145c-1.605,2.442-5.359,0.552-4.384-2.2c2.546-7.18,4.573-14.506,5.635-22.048
				c1.933-13.781,0.354-28.494-6.981-40.816c-6.308-10.597-16.482-18.838-27.613-24.947c-7.714-4.237-15.904-7.542-24.214-10.545
				l-9.449,210.544c-0.958,21.487-24.49,37.891-52.552,36.64c-28.054-1.26-50.024-19.709-49.066-41.196
				c0.967-21.495,24.498-37.891,52.561-36.648c12.357,0.561,23.549,4.461,32.109,10.467l10.519-234.645
				c0-0.121,0.009-0.242,0.017-0.362c0.414-4.884,4.617-8.603,9.544-8.37c4.634,0.198,8.31,3.823,8.715,8.327
				c0.164,1.873,0.319,3.737,0.734,5.557c1.89,8.267,6.472,14.411,13.09,20.425c7.715,7.033,16.974,12.15,25.007,18.803
				c18.354,15.161,29.728,38.452,30.401,62.251C1545.635,668.562,1540.535,685.803,1531.078,700.145z"/>
		</g>
		<g>
			<path d="M1130.401,824.241c4.669-13.201,6.123-27.552,3.908-41.384c-3.769-23.511-18.087-45.131-38.266-57.773
				c-8.844-5.55-18.691-9.42-27.265-15.385c-7.344-5.107-12.695-10.597-15.641-18.556c-0.649-1.754-1.051-3.585-1.457-5.411
				c-0.982-4.412-5.102-7.526-9.729-7.127c-5.042,0.435-8.777,4.874-8.342,9.916l20.174,234.108
				c-9.273-4.854-20.871-7.257-33.208-6.194c-27.996,2.413-49.194,21.752-47.346,43.196c1.848,21.444,26.041,36.872,54.037,34.459
				c27.996-2.413,49.193-21.752,47.346-43.196l-12.132-140.781c8.636,1.901,17.193,4.112,25.393,7.309
				c11.834,4.61,23.003,11.453,30.643,21.14c8.886,11.269,12.368,25.644,12.249,39.575c-0.065,7.615-1.13,15.148-2.714,22.6
				c-0.606,2.852,3.365,4.231,4.638,1.608c7.503-15.458,10.312-33.223,7.591-50.206
				C1138.709,842.34,1135.299,832.871,1130.401,824.241z M1102.013,794.367c-8.844-5.55-18.691-9.42-27.265-15.385
				c-0.073-0.051-0.147-0.102-0.22-0.153c-9.924-6.885-16.28-17.817-17.317-29.851l-0.702-8.148
				c8.636,1.901,17.193,4.112,25.393,7.309c11.834,4.61,23.003,11.453,30.643,21.14c8.886,11.269,12.368,25.644,12.249,39.575
				c-0.018,2.127-0.122,4.247-0.285,6.362C1118.356,806.972,1110.733,799.83,1102.013,794.367z"/>
		</g>
		<path d="M429.722,764.332c-6.036-1.503-12.132-2.285-18.235-2.472c-0.056-19.991-0.011-39.968,0.198-59.925
			c16.502-13.791,32.466-29.003,46.201-45.381c17.408-20.491,30.11-44.408,38.256-69.839c9.515-28.85,10.518-61.532-2.166-90.005
			c-1.458-3.374-3.173-6.745-4.918-10.022c-0.093-0.179-0.201-0.369-0.317-0.567c-5.249-8.922-17.34-10.875-25.293-4.247
			c-0.973,0.813-1.611,1.342-1.611,1.342c-24.488,21.401-44.546,48.226-55.358,78.94c-5.551,16.203-7.095,33.275-7.334,50.038
			c0.295,16.785,0.582,33.57,0.839,50.358c-20.562,13.318-41.537,26.382-60.768,41.794c-40.933,31.62-77.172,72.959-72.512,128.414
			c3.091,42.357,26.493,82.787,65.719,100.989c20.547,9.664,43.166,12.676,65.574,11.521c0.332-0.015,0.66-0.034,0.992-0.052
			c-0.168,19.943-0.272,39.721-0.276,58.978c0.283,10.014-1.607,20.163-6.178,29.111c-8.318,16.621-23.268,26.143-41.794,27.191
			c-18.799,1.231-40.356-3.95-51.834-19.306c1.186,0.188,2.394,0.327,3.627,0.396c15.979,0.904,29.525-8.83,30.255-21.74
			c0.73-12.91-11.642-23.95-27.611-25.013c-14.656-0.976-27.57,7.341-30.255,21.74c-5.082,27.256,22.279,49.231,42.449,54.753
			c10.965,3.113,24.723,4.809,35.885,3.971c27.97-2.077,49.169-20.301,57.241-46.843c2.397-7.841,3.314-16.084,3.143-24.26
			c0.007-20.137-0.112-40.307-0.295-60.496c38.059-6.208,70.182-29.528,80.416-69.339c3.191-12.781,4.079-26.3,1.532-39.207
			C488.958,801.806,463.113,772.337,429.722,764.332z M429.271,563.738c10.339-15.614,24.86-28.656,41.891-36.392
			c1.722,1.924,3.232,4.071,4.5,6.327c6.726,11.893,7.442,26.818,3.717,39.867c-6.379,24.036-20.864,45.97-40.132,61.506
			c-3.359,2.763-6.823,5.399-10.327,7.982c-5.365,3.859-10.838,7.606-16.375,11.293
			C413.459,623.838,411.528,589.776,429.271,563.738z M324.323,848.391c1.204,15.618,8.847,31.791,22.307,40.46
			c6.204,4.138,13.504,6.67,20.957,6.991c1.092,0.015,2.166,0.004,3.247-0.075c0.362-0.041,0.72-0.082,1.077-0.142
			c-0.28-0.227-0.544-0.462-0.805-0.701c-1.756-1.562-3.486-3.255-5.059-4.966c-9.544-10.365-14.678-22.034-14.936-36.101
			c-1.081-27.914,16.669-49.352,44.986-51.514c1.544-0.142,3.098-0.227,4.649-0.268c-0.101,11.427-0.246,22.855-0.462,34.278
			c-0.399,30.054-0.831,61.331-1.141,92.459c-4.262,0.555-8.702,0.753-13.303,0.57c-55.228-1.119-91.079-40.695-89.058-95.404
			c1.644-53.923,53.822-84.711,92.772-114.549c3.68-2.759,7.375-5.596,11.058-8.504c0.172,17.072,0.276,34.14,0.291,51.208
			c-3.52,0.283-7.032,0.742-10.521,1.376C348.754,770.805,320.33,805.951,324.323,848.391z M452.413,878.829
			c-5.339,23.291-19.488,39.557-39.248,46.641c-0.44-40.874-1.074-81.814-1.432-122.733c6.01,0.917,11.83,2.789,17.094,5.868
			c12.743,7.319,22.116,20.614,25.36,34.875c0.57,2.58,0.906,5.048,0.988,7.606C455.366,860.437,454.549,869.784,452.413,878.829z"
			/>
	</g>
</g>
</svg>
